# xmcd
#
# Track frame offsets:
#	150
#	12911
#	24764
#	46162
#	58003
#	68646
#	84908
#	99173
#	107528
#	120875
#	132693
#	145666
#	158283
#	172045
#	182813
#
# Disc length: 2613 seconds
#
# Revision: 1
# Processed by: cddbd v1.5.2PL0 Copyright (c) Steve Scherf et al.
# Submitted via: audiograbber 1.83.01
#
DISCID=ac0a330f
DTITLE=Various Artist - Absolutely The Best Of The Blues
DYEAR=1900
DGENRE=Blues
TTITLE0=Jimmy Reed - Shame, Shame, Shame
TTITLE1=John Lee Hooker - Boogie Chillun
TTITLE2=T-Bone Walker - Stormy Monday 
TTITLE3=Lightnin' Hopkins - Don't Think 'Cause You're Pretty
TTITLE4=Elmore James - One Way Out
TTITLE5=Roy Brown - Good Rockin' Tonight
TTITLE6=Mississippi John Hurt - Candy Man
TTITLE7=Big Joe Wlliams - Baby Please Don't Go
TTITLE8=Mississippi Fred McDowell - Got To Move
TTITLE9=Lightnin' Slim - Rooster Blues
TTITLE10=Sonny Terry and Brownie McGhee - Walk On
TTITLE11=Jimmy Reed - Big Boss Man
TTITLE12=Lowell Fulson - My Baby
TTITLE13=BB King - Recession Blues
TTITLE14=Muddy Waters - Hoochie Coochie Man
EXTD=
EXTT0=
EXTT1=
EXTT2=
EXTT3=
EXTT4=
EXTT5=
EXTT6=
EXTT7=
EXTT8=
EXTT9=
EXTT10=
EXTT11=
EXTT12=
EXTT13=
EXTT14=
PLAYORDER=
